HIERARCHY
ROOT Hips
{
    OFFSET   0.000000   0.000000   0.000000
    CHANNELS 6 Xposition Yposition Zposition Zrotation Xrotation Yrotation
    JOINT Chest
    {
        OFFSET   0.000000   8.007230   0.000000
        CHANNELS 3 Zrotation Xrotation Yrotation
        JOINT Chest2
        {
            OFFSET   0.000000  22.077100   0.000000
            CHANNELS 3 Zrotation Xrotation Yrotation
            JOINT Neck
            {
                OFFSET   0.000000  23.254800   0.000000
                CHANNELS 3 Zrotation Xrotation Yrotation
                JOINT Head
                {
                    OFFSET   0.000010  14.370000   1.956600
                    CHANNELS 3 Zrotation Xrotation Yrotation
                    End Site
                    {
                        OFFSET   0.000000  19.566000   0.000000
                    }
                }
            }
            JOINT LeftCollar
            {
                OFFSET   3.911900  19.017000  -0.467062
                CHANNELS 3 Zrotation Xrotation Yrotation
                JOINT LeftShoulder
                {
                    OFFSET  10.383700   0.000000   0.000000
                    CHANNELS 3 Zrotation Xrotation Yrotation
                    JOINT LeftElbow
                    {
                        OFFSET  26.662100   0.001193   0.000835
                        CHANNELS 3 Zrotation Xrotation Yrotation
                        JOINT LeftWrist
                        {
                            OFFSET  28.869000  -0.000058  -0.000075
                            CHANNELS 3 Zrotation Xrotation Yrotation
                            JOINT LeftFinger0
                            {
                                OFFSET   2.044660  -2.323460   3.252850
                                CHANNELS 3 Zrotation Xrotation Yrotation
                                JOINT LeftFinger01
                                {
                                    OFFSET   3.088130   0.000000   0.000000
                                    CHANNELS 3 Zrotation Xrotation Yrotation
                                    JOINT LeftFinger02
                                    {
                                        OFFSET   2.639450   0.000000   0.000000
                                        CHANNELS 3 Zrotation Xrotation Yrotation
                                        End Site
                                        {
                                            OFFSET   2.582190   0.000000   0.000000
                                        }
                                    }
                                }
                            }
                            JOINT LeftFinger1
                            {
                                OFFSET   8.364480   0.000000   3.252850
                                CHANNELS 3 Zrotation Xrotation Yrotation
                                JOINT LeftFinger11
                                {
                                    OFFSET   4.646920   0.000000   0.000000
                                    CHANNELS 3 Zrotation Xrotation Yrotation
                                    JOINT LeftFinger12
                                    {
                                        OFFSET   2.323460   0.000000   0.000000
                                        CHANNELS 3 Zrotation Xrotation Yrotation
                                        End Site
                                        {
                                            OFFSET   2.273050   0.000000   0.000000
                                        }
                                    }
                                }
                            }
                            JOINT LeftFinger2
                            {
                                OFFSET   8.364490   0.000016   1.078090
                                CHANNELS 3 Zrotation Xrotation Yrotation
                                JOINT LeftFinger21
                                {
                                    OFFSET   5.111620   0.000000   0.000000
                                    CHANNELS 3 Zrotation Xrotation Yrotation
                                    JOINT LeftFinger22
                                    {
                                        OFFSET   2.788150   0.000012   0.000000
                                        CHANNELS 3 Zrotation Xrotation Yrotation
                                        End Site
                                        {
                                            OFFSET   2.727660   0.000000   0.000000
                                        }
                                    }
                                }
                            }
                            JOINT LeftFinger3
                            {
                                OFFSET   7.899780   0.000014  -1.078090
                                CHANNELS 3 Zrotation Xrotation Yrotation
                                JOINT LeftFinger31
                                {
                                    OFFSET   4.646930   0.000000   0.000000
                                    CHANNELS 3 Zrotation Xrotation Yrotation
                                    JOINT LeftFinger32
                                    {
                                        OFFSET   2.323470   0.000000   0.000000
                                        CHANNELS 3 Zrotation Xrotation Yrotation
                                        End Site
                                        {
                                            OFFSET   2.273050   0.000000   0.000000
                                        }
                                    }
                                }
                            }
                            JOINT LeftFinger4
                            {
                                OFFSET   7.435090   0.000000  -3.252850
                                CHANNELS 3 Zrotation Xrotation Yrotation
                                JOINT LeftFinger41
                                {
                                    OFFSET   3.717550   0.000000   0.000000
                                    CHANNELS 3 Zrotation Xrotation Yrotation
                                    JOINT LeftFinger42
                                    {
                                        OFFSET   1.858770   0.000000   0.000000
                                        CHANNELS 3 Zrotation Xrotation Yrotation
                                        End Site
                                        {
                                            OFFSET   1.818440   0.000000   0.000000
                                        }
                                    }
                                }
                            }
                        }
                    }
                }
            }
            JOINT RightCollar
            {
                OFFSET  -3.911900  19.017000  -0.467063
                CHANNELS 3 Zrotation Xrotation Yrotation
                JOINT RightShoulder
                {
                    OFFSET -10.383700   0.000023   0.000000
                    CHANNELS 3 Zrotation Xrotation Yrotation
                    JOINT RightElbow
                    {
                        OFFSET -26.662100   0.001246   0.001011
                        CHANNELS 3 Zrotation Xrotation Yrotation
                        JOINT RightWrist
                        {
                            OFFSET -28.869000  -0.000026  -0.000078
                            CHANNELS 3 Zrotation Xrotation Yrotation
                            JOINT RightFinger0
                            {
                                OFFSET  -2.044660  -2.323490   3.252850
                                CHANNELS 3 Zrotation Xrotation Yrotation
                                JOINT RightFinger01
                                {
                                    OFFSET  -3.088130   0.000000   0.000000
                                    CHANNELS 3 Zrotation Xrotation Yrotation
                                    JOINT RightFinger02
                                    {
                                        OFFSET  -2.639460   0.000000   0.000000
                                        CHANNELS 3 Zrotation Xrotation Yrotation
                                        End Site
                                        {
                                            OFFSET  -2.582190   0.000000   0.000000
                                        }
                                    }
                                }
                            }
                            JOINT RightFinger1
                            {
                                OFFSET  -8.364480   0.000000   3.252850
                                CHANNELS 3 Zrotation Xrotation Yrotation
                                JOINT RightFinger11
                                {
                                    OFFSET  -4.646920   0.000000   0.000000
                                    CHANNELS 3 Zrotation Xrotation Yrotation
                                    JOINT RightFinger12
                                    {
                                        OFFSET  -2.323470   0.000000   0.000000
                                        CHANNELS 3 Zrotation Xrotation Yrotation
                                        End Site
                                        {
                                            OFFSET  -2.273050   0.000000   0.000000
                                        }
                                    }
                                }
                            }
                            JOINT RightFinger2
                            {
                                OFFSET  -8.364480   0.000000   1.078090
                                CHANNELS 3 Zrotation Xrotation Yrotation
                                JOINT RightFinger21
                                {
                                    OFFSET  -5.111620   0.000000   0.000000
                                    CHANNELS 3 Zrotation Xrotation Yrotation
                                    JOINT RightFinger22
                                    {
                                        OFFSET  -2.788160   0.000000   0.000000
                                        CHANNELS 3 Zrotation Xrotation Yrotation
                                        End Site
                                        {
                                            OFFSET  -2.727660   0.000000   0.000000
                                        }
                                    }
                                }
                            }
                            JOINT RightFinger3
                            {
                                OFFSET  -7.899780   0.000000  -1.078090
                                CHANNELS 3 Zrotation Xrotation Yrotation
                                JOINT RightFinger31
                                {
                                    OFFSET  -4.646930   0.000000   0.000000
                                    CHANNELS 3 Zrotation Xrotation Yrotation
                                    JOINT RightFinger32
                                    {
                                        OFFSET  -2.323470   0.000000   0.000000
                                        CHANNELS 3 Zrotation Xrotation Yrotation
                                        End Site
                                        {
                                            OFFSET  -2.273050   0.000000   0.000000
                                        }
                                    }
                                }
                            }
                            JOINT RightFinger4
                            {
                                OFFSET  -7.435090   0.000000  -3.252850
                                CHANNELS 3 Zrotation Xrotation Yrotation
                                JOINT RightFinger41
                                {
                                    OFFSET  -3.717550   0.000000   0.000000
                                    CHANNELS 3 Zrotation Xrotation Yrotation
                                    JOINT RightFinger42
                                    {
                                        OFFSET  -1.858760   0.000000   0.000000
                                        CHANNELS 3 Zrotation Xrotation Yrotation
                                        End Site
                                        {
                                            OFFSET  -1.818440   0.000000   0.000000
                                        }
                                    }
                                }
                            }
                        }
                    }
                }
            }
        }
    }
    JOINT LeftHip
    {
        OFFSET   9.783010   0.000000   0.000000
        CHANNELS 3 Zrotation Xrotation Yrotation
        JOINT LeftKnee
        {
            OFFSET   0.000073 -41.789100   0.001749
            CHANNELS 3 Zrotation Xrotation Yrotation
            JOINT LeftAnkle
            {
                OFFSET   0.000111 -41.133200  -0.000179
                CHANNELS 3 Zrotation Xrotation Yrotation
                JOINT LeftToe
                {
                    OFFSET   0.000000  -6.358960  14.674500
                    CHANNELS 3 Zrotation Xrotation Yrotation
                    End Site
                    {
                        OFFSET   0.000000   0.000000   3.913200
                    }
                }
            }
        }
    }
    JOINT RightHip
    {
        OFFSET  -9.783010   0.000000   0.000000
        CHANNELS 3 Zrotation Xrotation Yrotation
        JOINT RightKnee
        {
            OFFSET   0.000424 -41.789200   0.005205
            CHANNELS 3 Zrotation Xrotation Yrotation
            JOINT RightAnkle
            {
                OFFSET   0.000000 -41.133200  -0.000155
                CHANNELS 3 Zrotation Xrotation Yrotation
                JOINT RightToe
                {
                    OFFSET   0.000000  -6.358960  14.674500
                    CHANNELS 3 Zrotation Xrotation Yrotation
                    End Site
                    {
                        OFFSET   0.000000   0.000000   3.913200
                    }
                }
            }
        }
    }
}
MOTION
Frames: 4
Frame Time:   0.016667
 -0.854601  89.596400   0.335368  -2.370120  -7.691460  -0.570004   0.727697   3.498500   0.669641   1.418270   7.005000   1.298260   0.107739  -1.376860   0.011692   0.167705  -2.792380  -1.775250  -5.292650  -1.593550  -0.003001 -74.915800  14.881100   2.258790  -1.016350  -3.675560 -14.166000  12.278800 -13.998400   1.412070  35.155900  26.204000 -58.515300 -33.122700   0.002962   0.002014 -11.561300   0.001692  -0.001326 -24.841100   4.919280 -10.494200 -20.694400   0.006054  -0.000422 -14.486100  -0.001100  -0.000930 -27.080600  -1.506900   2.929690 -27.487800  -0.008099  -0.000154 -18.306900   0.006237   0.002083 -27.770700  -1.542570   2.911070 -30.915800  -0.007992  -0.001496 -20.589900  -0.004616   0.001770 -31.424300  -1.724090   2.807720 -47.200300  -0.002428   0.001506 -31.435400  -0.004173   0.000000  10.802300  -1.568530   6.848070  70.733300   8.201850  -8.498900  -2.331470  -4.577230  13.210400 -14.428200  -5.288760   1.259050 -34.185600  26.155600  60.405300  34.085900  -0.005865  -0.002393  12.038200  -0.008767  -0.001317  28.692900   6.316630  11.366100  23.990800  -0.000954   0.003706  16.793600  -0.005008   0.002675  28.718700   2.160970   3.937640  41.776700  -0.000183   0.003281  27.823300   0.006198   0.001942  28.543500   1.737990   3.178040  37.212400   0.000848   0.007953  24.783400  -0.001567   0.004621  36.457900  -0.111198  -0.153493  54.687000   0.001716   0.001707  36.421600   0.003206  -0.000220   1.432900   9.160800   4.869150   0.835030   0.142176   1.660320  -0.102642  -2.909960   2.847540  -0.000000   0.000000  -0.000000   4.312920   8.450780   0.281825  -2.233210   2.796510  -7.407690  -1.011400  -4.471330   0.149072  -0.000000   0.000000   0.000000
 -0.857849  89.596400   0.340921  -2.370040  -7.684310  -0.569995   0.727795   3.504420   0.669538   1.418430   7.016850   1.297990   0.101279  -1.381410   0.011677   0.160921  -2.801620  -1.774160  -5.292830  -1.593600  -0.002835 -74.898200  14.893200   2.247950  -1.025800  -3.686330 -14.174600  12.263600 -13.966600   1.395560  35.190000  26.208800 -58.457800 -33.099800   0.002964   0.001999 -11.549900   0.001695  -0.001326 -24.803100   4.904400 -10.481100 -20.661700   0.006055  -0.000425 -14.463200  -0.001101  -0.000931 -27.065700  -1.506680   2.937380 -27.425700  -0.008100  -0.000150 -18.265500   0.006239   0.002084 -27.770500  -1.542360   2.918420 -30.876500  -0.007992  -0.001499 -20.563700  -0.004616   0.001771 -31.403900  -1.723830   2.815230 -47.169500  -0.002425   0.001507 -31.414900  -0.004172   0.000000  10.802800  -1.573500   6.848170  70.734400   8.208420  -8.499310  -2.325650  -4.577070  13.219000 -14.433600  -5.288180   1.261880 -34.174000  26.137500  60.415400  34.090200  -0.005853  -0.002385  12.042500  -0.008777  -0.001326  28.705100   6.334220  11.391200  24.003300  -0.000946   0.003693  16.802400  -0.005013   0.002666  28.718700   2.160510   3.936780  41.802200  -0.000174   0.003267  27.840200   0.006196   0.001934  28.543800   1.733710   3.176140  37.231600   0.000857   0.007943  24.796300  -0.001569   0.004612  36.471100  -0.111208  -0.157889  54.706900   0.001727   0.001701  36.434800   0.003198  -0.000226   1.435100   9.190800   4.879270   0.835777   0.073119   1.657460  -0.103446  -2.877160   2.847410   0.000000   0.000000  -0.000000   4.312110   8.456200   0.287174  -2.228470   2.780000  -7.407590  -1.014980  -4.467550   0.148893   0.000000   0.000000  -0.000000
 -0.863165  89.596500   0.350469  -2.369910  -7.673180  -0.569980   0.727923   3.514470   0.669379   1.418610   7.036990   1.297550   0.091963  -1.389840   0.011655   0.151201  -2.818670  -1.767930  -5.293010  -1.593660  -0.002669 -74.870400  14.915700   2.229120  -1.037850  -3.703780 -14.189700  12.248300 -13.926400   1.379010  35.204700  26.201100 -58.390400 -33.077000   0.002967   0.001984 -11.538500   0.001700  -0.001326 -24.765100   4.889510 -10.468000 -20.629000   0.006060  -0.000429 -14.440300  -0.001107  -0.000938 -27.050800  -1.506390   2.945070 -27.363600  -0.008105  -0.000142 -18.224100   0.006241   0.002088 -27.770200  -1.542060   2.925950 -30.837100  -0.007992  -0.001507 -20.537500  -0.004614   0.001774 -31.379100  -1.723480   2.823070 -47.132400  -0.002416   0.001507 -31.390200  -0.004169   0.000000  10.803600  -1.580510   6.848330  70.736000   8.218770  -8.499800  -2.314580  -4.576810  13.232400 -14.438700  -5.287580   1.267230 -34.154400  26.119500  60.425500  34.099500  -0.005835  -0.002375  12.049800  -0.008793  -0.001335  28.717300   6.351810  11.416300  24.015900  -0.000923   0.003662  16.811100  -0.005029   0.002640  28.719200   2.157280   3.930760  41.827700  -0.000152   0.003231  27.857200   0.006187   0.001911  28.544300   1.726300   3.170260  37.250900   0.000881   0.007917  24.809100  -0.001575   0.004590  36.484300  -0.111219  -0.162286  54.726700   0.001758   0.001683  36.448000   0.003178  -0.000239   1.441080   9.220780   4.890110   0.836517   0.004061   1.654600  -0.104261  -2.844360   2.847060  -0.000000   0.000000   0.000000   4.310800   8.469720   0.295598  -2.220980   2.745970  -7.407460  -1.020960  -4.457980   0.148712  -0.000000   0.000000  -0.000000
 -0.867218  89.596500   0.358627  -2.370330  -7.666580  -0.573890   0.727963   3.523130   0.669254   1.418640   7.054330   1.297180   0.087231  -1.398490   0.011643   0.146593  -2.835990  -1.753360  -5.292980  -1.593660  -0.002720 -74.852000  14.938600   2.211520  -1.042680  -3.717050 -14.203200  12.269200 -13.916400   1.389550  35.170100  26.170800 -58.382100 -33.098000   0.002967   0.001987 -11.549000   0.001703  -0.001320 -24.768800   4.892890 -10.473300 -20.632500   0.006071  -0.000429 -14.442700  -0.001124  -0.000954 -27.055900  -1.506270   2.945020 -27.385000  -0.008117  -0.000130 -18.238400   0.006240   0.002096 -27.770100  -1.541930   2.926070 -30.838100  -0.007991  -0.001517 -20.538200  -0.004612   0.001780 -31.374100  -1.723330   2.823290 -47.125000  -0.002401   0.001510 -31.385200  -0.004165   0.000000  10.803900  -1.583650   6.848490  70.736500   8.224590  -8.498630  -2.301850  -4.578350  13.243100 -14.427600  -5.298860   1.273690 -34.146900  26.126200  60.430800  34.114900  -0.005824  -0.002373  12.057800  -0.008803  -0.001335  28.709200   6.341900  11.403800  24.007900  -0.000883   0.003616  16.805500  -0.005054   0.002598  28.721200   2.142420   3.903620  41.810900  -0.000116   0.003180  27.846000   0.006170   0.001871  28.545200   1.718070   3.156250  37.229700   0.000921   0.007875  24.795000  -0.001582   0.004557  36.470100  -0.111216  -0.157540  54.705400   0.001812   0.001649  36.433800   0.003144  -0.000258   1.450320   9.199490   4.890510   0.837205   0.048853   1.660960  -0.108178  -2.872720   2.846000  -0.000000   0.000000   0.000000   4.309690   8.489990   0.302235  -2.215760   2.705520  -7.411260  -1.026070  -4.443410   0.149117  -0.000000   0.000000   0.000000
